<?xml version="1.0" encoding="UTF-8"?>
<svg xmlns="http://www.w3.org/2000/svg" width="192" height="45" viewBox="0 0 192 45" fill="none">
  <g id="Calque_1" clip-path="url(#clip0_11062_46772)">
    <g id="Clip path group">
      <mask id="mask0_11062_46772" style="mask-type:luminance" maskUnits="userSpaceOnUse" x="0" y="0" width="192" height="45">
        <g id="clippath">
          <path id="Vector" d="M191.25 0H0V45H191.25V0Z" fill="white"></path>
        </g>
      </mask>
      <g mask="url(#mask0_11062_46772)">
        <g id="Group">
          <path id="Vector_2" d="M68.9294 4.41822C68.4733 5.26944 67.6414 5.62749 66.9504 5.62749C65.7496 5.62749 64.7031 4.67494 64.7031 3.39134C64.7031 2.10775 65.7228 1.14844 66.9437 1.14844C68.0439 1.14844 68.7416 1.92535 68.9093 2.33069H68.4263C67.9567 1.62134 67.1987 1.54027 66.9303 1.54027C65.9241 1.54027 65.1258 2.43203 65.1258 3.3981C65.1258 4.36417 66.0113 5.23566 66.937 5.23566C67.1517 5.23566 67.8561 5.20864 68.4397 4.41822H68.9227H68.9294Z" fill="#1f2a2e"></path>
          <path id="Vector_3" d="M73.2156 1.14844C74.4231 1.14844 75.4897 2.11451 75.4897 3.39134C75.4897 4.66818 74.4164 5.63425 73.2156 5.63425C72.0148 5.63425 70.9414 4.6344 70.9414 3.41837C70.9414 2.05371 72.0684 1.15519 73.2156 1.15519M73.2156 5.23566C74.2084 5.23566 75.0604 4.42497 75.0604 3.39134C75.0604 2.35772 74.2285 1.53351 73.2156 1.53351C72.2026 1.53351 71.3775 2.33069 71.3775 3.40486C71.3775 4.39119 72.216 5.22891 73.2156 5.22891" fill="#1f2a2e"></path>
          <path id="Vector_4" d="M77.71 1.22266H78.3741L79.9372 4.90454L81.5069 1.22266H82.1643V5.54633H81.735V1.69556H81.7283L80.1183 5.54633H79.7493L78.1527 1.69556H78.1393V5.54633H77.71V1.22266Z" fill="#1f2a2e"></path>
          <path id="Vector_5" d="M84.5801 1.22266H85.2375L86.8006 4.90454L88.3703 1.22266H89.0345V5.54633H88.6051V1.69556H88.5917L86.9817 5.54633H86.6127L85.0161 1.69556H85.0094V5.54633H84.5801V1.22266Z" fill="#1f2a2e"></path>
          <path id="Vector_6" d="M91.865 1.22266V3.9182C91.865 4.23572 91.912 4.51946 92.0126 4.70186C92.2742 5.18828 92.6969 5.23557 92.9048 5.23557C93.1128 5.23557 93.5287 5.18828 93.7903 4.70186C93.891 4.51946 93.9379 4.23572 93.9379 3.9182V1.22266H94.3672V3.9182C94.3672 4.28301 94.3069 4.58702 94.2062 4.81671C93.9111 5.46526 93.3073 5.6274 92.9048 5.6274C92.5023 5.6274 91.8986 5.46526 91.6034 4.81671C91.4961 4.58702 91.4424 4.27625 91.4424 3.9182V1.22266H91.8717H91.865Z" fill="#1f2a2e"></path>
          <path id="Vector_7" d="M96.7686 1.22266H97.3455L99.7471 4.80996H99.7605V1.22266H100.19V5.54633H99.7605L97.2046 1.74285H97.1979V5.54633H96.7686V1.22266Z" fill="#1f2a2e"></path>
          <path id="Vector_8" d="M104.061 1.22266H104.544L106.389 5.55309H105.919L105.295 4.1006H103.296L102.665 5.55309H102.223L104.061 1.22266ZM103.464 3.70201H105.134L104.309 1.71583L103.464 3.70201Z" fill="#1f2a2e"></path>
          <path id="Vector_9" d="M108.851 1.22266V3.9182C108.851 4.23572 108.898 4.51946 108.992 4.70186C109.254 5.18828 109.676 5.23557 109.884 5.23557C110.092 5.23557 110.508 5.18828 110.77 4.70186C110.87 4.51946 110.917 4.23572 110.917 3.9182V1.22266H111.347V3.9182C111.347 4.28301 111.286 4.58702 111.186 4.81671C110.891 5.46526 110.287 5.6274 109.884 5.6274C109.482 5.6274 108.878 5.46526 108.583 4.81671C108.482 4.58702 108.422 4.27625 108.422 3.9182V1.22266H108.851Z" fill="#1f2a2e"></path>
          <path id="Vector_10" d="M114.339 1.61449H113.346V1.22266H115.747V1.61449H114.768V5.54633H114.339V1.61449Z" fill="#1f2a2e"></path>
          <path id="Vector_11" d="M117.72 1.22279H120.074V1.61462H118.156V3.16844H120.014V3.56028H118.156V5.15463H120.074V5.54646H117.72V1.22279ZM119.397 0L119.585 0.351299L118.438 0.972827L118.243 0.63504L119.397 0Z" fill="#1f2a2e"></path>
          <path id="Vector_12" d="M125.521 1.22266H126.776C127.306 1.22266 127.829 1.35102 128.178 1.58071C128.936 2.05361 129.151 2.87781 129.151 3.39801C129.151 3.80335 128.996 4.66809 128.178 5.19503C127.829 5.42473 127.306 5.55309 126.776 5.55309H125.521V1.22266ZM125.951 5.1545H126.575C126.964 5.1545 127.554 5.1545 128.051 4.8032C128.312 4.58026 128.721 4.13438 128.721 3.37774C128.721 2.8035 128.44 2.2698 127.99 1.94552C127.608 1.69556 127.205 1.61449 126.575 1.61449H125.951V5.16125V5.1545Z" fill="#1f2a2e"></path>
          <path id="Vector_13" d="M131.344 1.22266H133.698V1.61449H131.773V3.16831H133.631V3.56014H131.773V5.1545H133.698V5.54633H131.344V1.22266Z" fill="#1f2a2e"></path>
          <path id="Vector_14" d="M143.191 4.41822C142.735 5.26944 141.903 5.62749 141.212 5.62749C140.011 5.62749 138.965 4.67494 138.965 3.39134C138.965 2.10775 139.985 1.14844 141.205 1.14844C142.306 1.14844 143.003 1.92535 143.171 2.33069H142.688C142.218 1.62134 141.454 1.54027 141.192 1.54027C140.186 1.54027 139.387 2.43203 139.387 3.3981C139.387 4.36417 140.273 5.23566 141.199 5.23566C141.413 5.23566 142.118 5.20864 142.701 4.41822H143.184H143.191Z" fill="#1f2a2e"></path>
          <path id="Vector_15" d="M147.484 1.14844C148.692 1.14844 149.758 2.11451 149.758 3.39134C149.758 4.66818 148.685 5.63425 147.484 5.63425C146.283 5.63425 145.21 4.6344 145.21 3.41837C145.21 2.05371 146.337 1.15519 147.484 1.15519M147.484 5.23566C148.477 5.23566 149.329 4.42497 149.329 3.39134C149.329 2.35772 148.497 1.53351 147.484 1.53351C146.471 1.53351 145.646 2.33069 145.646 3.40486C145.646 4.39119 146.491 5.22891 147.484 5.22891" fill="#1f2a2e"></path>
          <path id="Vector_16" d="M151.979 1.22266H152.644L154.207 4.90454L155.77 1.22266H156.434V5.54633H156.005V1.69556H155.991L154.381 5.54633H154.019L152.422 1.69556H152.409V5.54633H151.979V1.22266Z" fill="#1f2a2e"></path>
          <path id="Vector_17" d="M158.842 1.22266H159.506L161.069 4.90454L162.639 1.22266H163.296V5.54633H162.867V1.69556H162.853L161.25 5.54633H160.881L159.285 1.69556H159.271V5.54633H158.842V1.22266Z" fill="#1f2a2e"></path>
          <path id="Vector_18" d="M166.134 1.22266V3.9182C166.134 4.23572 166.181 4.51946 166.281 4.70186C166.543 5.18828 166.965 5.23557 167.173 5.23557C167.381 5.23557 167.797 5.18828 168.059 4.70186C168.16 4.51946 168.206 4.23572 168.206 3.9182V1.22266H168.636V3.9182C168.636 4.28301 168.575 4.58702 168.475 4.81671C168.18 5.46526 167.576 5.6274 167.173 5.6274C166.771 5.6274 166.167 5.46526 165.872 4.81671C165.771 4.58702 165.711 4.27625 165.711 3.9182V1.22266H166.14H166.134Z" fill="#1f2a2e"></path>
          <path id="Vector_19" d="M171.031 1.22266H171.615L174.01 4.80996H174.023V1.22266H174.453V5.54633H174.023L171.474 1.74285H171.461V5.54633H171.031V1.22266Z" fill="#1f2a2e"></path>
          <path id="Vector_20" d="M176.827 1.22266H179.182V1.61449H177.256V3.16831H179.115V3.56014H177.256V5.1545H179.182V5.54633H176.827V1.22266Z" fill="#1f2a2e"></path>
          <path id="Vector_21" d="M181.624 4.33715C181.644 4.88436 181.993 5.23566 182.516 5.23566C182.972 5.23566 183.381 4.88436 183.381 4.37768C183.381 3.70886 182.717 3.53997 182.422 3.45215C182.033 3.3373 181.309 3.17516 181.309 2.31043C181.309 1.64161 181.838 1.14844 182.516 1.14844C183.194 1.14844 183.71 1.6889 183.71 2.32394H183.281C183.281 1.88481 182.925 1.54027 182.523 1.54027C182.033 1.54027 181.745 1.91859 181.745 2.29691C181.745 2.82386 182.201 2.94546 182.764 3.1076C183.811 3.39134 183.817 4.21554 183.817 4.35066C183.817 5.02623 183.281 5.62749 182.523 5.62749C181.966 5.62749 181.215 5.29646 181.201 4.33715H181.631H181.624Z" fill="#1f2a2e"></path>
          <path id="Vector_22" d="M74.2154 41.8127C74.2154 43.5759 72.7932 45.0081 71.0423 45.0081C69.2915 45.0081 67.876 43.5827 67.876 41.8127C67.876 40.0426 69.2915 38.6172 71.0423 38.6172C72.7932 38.6172 74.2154 40.0426 74.2154 41.8127Z" fill="#02B0A4"></path>
          <path id="Vector_23" d="M83.359 41.8127C83.359 43.5759 81.9368 45.0081 80.1859 45.0081C78.435 45.0081 77.0195 43.5827 77.0195 41.8127C77.0195 40.0426 78.4417 38.6172 80.1859 38.6172C81.9301 38.6172 83.359 40.0426 83.359 41.8127Z" fill="#02B0A4"></path>
          <path id="Vector_24" d="M49.7162 11.6122C43.8732 11.6122 37.5605 16.2467 37.5605 23.732C37.5605 30.1702 43.1285 35.6086 49.7162 35.6086C56.3038 35.6086 61.8986 30.2243 61.8986 23.6037C61.8986 16.983 56.4313 11.6055 49.7162 11.6055M49.7162 32.5956C44.866 32.5956 40.7672 28.5354 40.7672 23.732C40.7672 18.9287 44.7855 14.6253 49.7162 14.6253C54.6469 14.6253 58.6987 18.672 58.6987 23.6442C58.6987 28.6164 54.667 32.5956 49.7162 32.5956Z" fill="#1f2a2e"></path>
          <path id="Vector_25" d="M67.4734 32.2103V25.0155H82.4264L81.1652 21.9956H67.4734V15.017H78.4013L77.1804 12.0039H64.2734V35.2234H86.6259L85.3647 32.2103H67.4734Z" fill="#1f2a2e"></path>
          <path id="Vector_26" d="M91.6567 30.616L84.2104 12.0039H80.6885L90.1876 35.2234H93.0319L102.598 12.0039H99.1299L91.6567 30.616Z" fill="#1f2a2e"></path>
          <path id="Vector_27" d="M121.469 19.6813C121.469 16.729 119.853 14.1281 117.25 12.8918C116.378 12.4797 114.949 12 111.615 12H105.678L104.443 15.0131H112.064C113.775 15.0131 114.868 15.1347 116.129 15.7967C117.37 16.4183 118.269 18.0261 118.269 19.6137C118.269 21.2013 117.411 23.1537 114.989 23.8496C114.097 24.1198 113.258 24.1536 110.394 24.1536H109.401L117.625 35.2195H121.65L115.345 26.8289C119.376 26.16 121.476 22.8362 121.476 19.6745" fill="#1f2a2e"></path>
          <path id="Vector_28" d="M134.947 11.6122C129.104 11.6122 122.791 16.2467 122.791 23.732C122.791 30.1702 128.359 35.6086 134.947 35.6086C141.534 35.6086 147.129 30.2243 147.129 23.6037C147.129 16.983 141.662 11.6055 134.947 11.6055M134.947 32.5956C130.096 32.5956 125.998 28.5354 125.998 23.732C125.998 18.9287 130.016 14.6253 134.947 14.6253C139.877 14.6253 143.929 18.672 143.929 23.6442C143.929 28.6164 139.897 32.5956 134.947 32.5956Z" fill="#1f2a2e"></path>
          <path id="Vector_29" d="M165 29.3797L153.395 12.0039H149.651V35.2234H152.851V16.7329L165.235 35.2234H168.207V12.0039H165V29.3797Z" fill="#1f2a2e"></path>
          <path id="Vector_30" d="M178.813 21.6939L178.646 21.6466C175.633 20.7684 173.923 20.1739 173.923 18.0053C173.923 16.3704 175.15 14.6342 177.418 14.6342C179.263 14.6342 180.826 16.2488 180.826 18.1539V18.6538H184.032V18.1539C184.032 14.4923 181.128 11.6211 177.425 11.6211C173.722 11.6211 170.723 14.4045 170.723 18.0999C170.723 22.6532 174.459 23.7477 176.472 24.3354L177.002 24.4975C178.525 24.9502 181.362 25.7946 181.362 28.6996C181.362 31.1452 179.357 32.6112 177.418 32.6112C175.003 32.6112 173.433 31.0371 173.326 28.4969L173.306 28.0173H170.119V28.5307C170.22 33.4084 173.97 35.631 177.425 35.631C181.43 35.631 184.569 32.5504 184.569 28.5848C184.569 26.9837 184.006 23.0991 178.813 21.7074" fill="#1f2a2e"></path>
          <path id="Vector_31" d="M9.75391 13.7969C9.75391 13.7969 14.5504 10.2839 22.2047 10.9122C30.7713 11.6148 32.4619 16.4856 32.4619 16.4856H36.7821L36.4936 15.7898C35.3465 13.047 30.4292 7.37891 22.5334 7.37891C17.2673 7.37891 12.6855 9.83124 9.82099 13.6685L9.75391 13.7969Z" fill="#1f2a2e"></path>
          <path id="Vector_32" d="M32.5967 29.7578L32.4491 29.9605C29.1218 34.4328 25.2242 35.3718 22.5341 35.3718C20.8771 35.3718 19.2738 34.9732 17.8047 34.2909C19.0793 35.6286 22.8293 38.4187 30.8861 36.6284C33.0663 35.2705 35.0855 33.2843 36.5882 30.5009L36.9907 29.7578H32.5967Z" fill="#1f2a2e"></path>
          <path id="Vector_33" d="M10.7806 25.1931H10.7873C10.68 24.5648 10.6129 23.9297 10.6129 23.2812C10.6129 20.8424 11.3575 18.5454 12.612 16.6133C11.7533 17.1875 8.58025 19.5115 6.68848 23.7271C6.90315 30.7598 11.7466 36.6373 18.294 38.4681C12.0217 34.1647 10.8007 25.3147 10.7806 25.1931Z" fill="#1f2a2e"></path>
        </g>
      </g>
    </g>
  </g>
  <defs>
    <clipPath id="clip0_11062_46772">
      <rect width="191.25" height="45" fill="#1f2a2e"></rect>
    </clipPath>
  </defs>
</svg>
